<?xml version="1.0" standalone="no"?>
<!DOCTYPE svg PUBLIC "-//W3C//DTD SVG 20010904//EN"
 "http://www.w3.org/TR/2001/REC-SVG-20010904/DTD/svg10.dtd">
<svg version="1.0" xmlns="http://www.w3.org/2000/svg"
 width="512.000000pt" height="512.000000pt" viewBox="0 0 512.000000 512.000000"
 preserveAspectRatio="xMidYMid meet">
<g transform="translate(0.000000,512.000000) scale(0.100000,-0.100000)"
fill="#000000" stroke="none">
<path d="M419 5106 c8 -11 181 -305 503 -858 l149 -257 -184 -298 c-298 -482
-378 -624 -522 -918 -248 -507 -345 -874 -345 -1305 0 -331 76 -664 231 -1012
81 -184 235 -458 256 -458 7 0 13 2 13 3 0 9 -34 73 -46 87 -6 8 -23 35 -36
60 -14 25 -34 62 -46 83 -12 21 -22 42 -22 48 0 6 -8 23 -18 37 -10 15 -27 47
-37 72 -10 25 -24 52 -31 60 -7 8 -13 17 -13 20 0 8 -17 51 -46 114 -15 33
-29 69 -30 80 -2 12 -14 50 -28 86 -38 102 -98 373 -113 510 -5 46 -4 396 1
435 2 17 6 53 9 80 12 100 40 235 56 266 6 11 8 24 5 29 -3 5 -2 18 4 27 5 10
11 32 14 48 3 17 14 55 26 85 11 30 21 63 21 73 0 9 4 25 9 35 5 9 26 58 46
107 20 50 52 126 72 170 32 70 60 128 182 370 14 28 32 56 40 63 13 11 13 12
1 6 -12 -6 -12 -4 1 12 21 25 90 144 83 144 -3 0 5 15 18 33 30 42 47 68 55
87 3 8 16 29 28 45 12 17 39 62 60 100 47 87 171 275 193 294 16 12 15 13 -3
7 -19 -7 -19 -6 2 16 11 13 29 39 40 58 10 19 31 55 47 79 31 48 40 78 25 86
-5 4 -9 13 -9 22 0 9 -10 27 -21 39 -24 25 -39 51 -64 104 -9 19 -19 37 -23
40 -7 5 -13 15 -60 99 -14 25 -28 48 -32 51 -12 10 -59 100 -48 94 7 -4 -2 10
-18 32 -16 21 -32 41 -37 42 -4 2 -5 8 -1 13 3 5 0 9 -7 9 -7 0 -10 3 -6 6 3
3 2 11 -4 18 -24 29 -58 87 -47 80 7 -5 -4 15 -25 43 -20 28 -37 55 -37 61 0
5 -7 15 -15 22 -8 7 -12 16 -9 21 3 5 0 9 -5 9 -6 0 -11 4 -11 9 0 10 -69 132
-79 141 -13 10 -41 60 -35 60 4 0 -1 9 -10 19 -12 13 -14 21 -6 26 13 8 116 9
205 2 161 -13 330 -22 422 -22 55 0 100 -2 98 -5 -2 -3 33 -6 78 -7 45 -1 89
-3 97 -6 12 -4 232 -15 540 -27 23 -1 154 -8 255 -15 114 -7 236 -13 395 -19
69 -3 125 -6 125 -7 0 -8 686 -43 725 -37 17 3 30 2 30 -2 0 -3 17 -6 38 -6
82 1 298 -16 305 -24 5 -4 4 -16 -1 -26 -5 -11 -12 -35 -15 -54 -3 -19 -8 -44
-11 -55 -38 -156 -48 -227 -36 -250 l13 -25 208 0 c154 0 211 -3 219 -12 13
-15 112 -169 156 -242 16 -27 37 -63 48 -80 10 -17 23 -34 30 -38 6 -4 7 -8 3
-8 -4 0 -3 -6 3 -12 25 -30 59 -89 48 -82 -7 4 -1 -6 15 -23 15 -16 27 -37 27
-46 0 -10 7 -20 15 -23 8 -4 13 -10 10 -14 -3 -4 2 -11 11 -14 8 -3 12 -10 9
-16 -3 -6 1 -13 9 -16 9 -3 13 -10 10 -15 -3 -5 0 -9 5 -9 6 0 11 -5 11 -10 0
-6 8 -23 19 -38 53 -77 83 -130 88 -154 3 -16 10 -28 15 -28 5 0 6 5 2 12 -4
7 -3 8 5 4 6 -4 9 -11 6 -16 -3 -5 3 -13 12 -19 10 -6 14 -11 9 -11 -5 0 -1
-9 9 -20 17 -18 17 -20 2 -14 -10 3 -17 1 -17 -6 0 -6 4 -9 9 -5 11 6 21 -4
56 -57 13 -21 21 -38 17 -38 -4 0 -2 -4 3 -8 15 -10 58 -72 50 -72 -3 0 -1 -6
5 -12 18 -23 100 -150 100 -157 0 -3 20 -37 45 -76 42 -66 57 -104 35 -90 -5
3 -10 1 -10 -4 0 -6 -5 -11 -12 -11 -6 0 -23 -10 -36 -22 -14 -13 -21 -16 -17
-8 6 11 3 10 -12 -2 -11 -10 -25 -18 -32 -18 -7 0 -9 -5 -5 -11 4 -7 1 -10 -7
-7 -8 3 -25 -4 -38 -16 -13 -11 -21 -16 -18 -10 4 7 0 15 -9 18 -8 3 -13 10
-10 15 4 5 3 11 -2 13 -4 1 -19 21 -32 43 -65 111 -136 223 -154 244 -12 13
-15 21 -9 17 7 -4 -10 27 -38 69 -27 42 -53 84 -57 93 -3 9 -14 26 -24 36 -9
10 -15 24 -11 29 3 6 2 8 -3 5 -5 -3 -19 10 -31 29 -13 19 -17 31 -11 27 7 -4
1 8 -12 27 -13 19 -28 36 -32 37 -4 2 -8 7 -8 11 0 13 -159 274 -183 300 -12
13 -15 21 -7 16 8 -5 5 3 -6 16 -12 13 -36 51 -54 84 -18 33 -44 73 -59 89
-14 16 -19 25 -11 21 11 -6 10 -3 -2 12 -10 11 -18 24 -18 30 0 6 -16 25 -35
42 l-36 31 -155 0 c-85 0 -164 -4 -174 -10 -33 -18 -94 -250 -70 -265 6 -4 7
-11 4 -17 -4 -6 -2 -8 4 -4 12 7 26 -29 17 -44 -4 -6 1 -7 11 -3 11 4 15 2 11
-4 -4 -6 2 -18 13 -28 11 -10 20 -24 20 -31 0 -7 3 -14 8 -16 4 -1 16 -21 27
-42 11 -22 27 -46 35 -54 8 -8 15 -22 17 -31 1 -8 8 -20 16 -26 8 -5 14 -12
14 -15 -1 -6 26 -51 54 -92 11 -15 19 -33 19 -40 0 -7 14 -28 31 -45 16 -18
27 -33 24 -33 -3 0 5 -17 18 -37 13 -21 26 -45 30 -53 7 -17 37 -64 82 -131
16 -24 30 -51 31 -59 2 -8 7 -16 13 -18 5 -2 7 -10 4 -19 -4 -10 -2 -14 4 -10
6 4 13 -1 16 -11 4 -9 20 -39 37 -67 17 -27 41 -73 54 -101 13 -28 29 -55 35
-58 6 -4 9 -12 6 -17 -4 -5 -1 -9 6 -9 7 0 10 -3 7 -6 -3 -3 20 -57 52 -120
32 -63 56 -114 54 -114 -3 0 4 -12 15 -26 12 -15 21 -35 21 -45 0 -10 11 -42
24 -71 28 -63 41 -100 38 -111 -1 -5 2 -6 7 -3 5 3 12 -1 15 -10 3 -8 2 -12
-4 -9 -5 3 -1 -15 10 -40 11 -26 20 -56 20 -66 0 -13 4 -18 12 -13 6 4 8 3 5
-3 -6 -9 2 -47 21 -93 3 -8 7 -22 8 -30 8 -44 16 -75 25 -92 6 -10 7 -28 3
-40 -3 -11 -2 -18 2 -15 5 3 10 -5 10 -16 1 -12 9 -62 18 -112 24 -132 29
-193 28 -360 0 -166 -5 -235 -22 -340 -6 -38 -14 -83 -16 -100 -3 -16 -7 -43
-9 -58 -3 -16 -7 -33 -10 -38 -4 -5 -8 -17 -10 -26 -2 -10 -8 -38 -15 -63 -6
-25 -12 -49 -13 -55 -1 -5 -5 -14 -8 -20 -4 -5 -14 -35 -23 -65 -22 -71 -28
-86 -54 -140 -12 -25 -24 -54 -26 -65 -3 -11 -24 -60 -49 -110 -24 -49 -52
-108 -63 -130 -10 -22 -24 -45 -32 -50 -7 -6 -12 -15 -11 -20 4 -13 -18 -54
-45 -84 -11 -13 -14 -20 -6 -16 8 5 0 -11 -18 -35 -32 -44 -40 -70 -23 -70 14
0 100 146 179 306 215 431 303 769 303 1170 1 380 -74 700 -266 1139 -127 292
-307 613 -694 1235 l-103 164 23 108 23 108 176 0 175 -1 415 -674 c309 -502
419 -674 430 -669 39 14 230 140 226 149 -2 6 -201 330 -441 720 -241 391
-445 722 -454 737 l-16 28 -223 0 c-208 0 -223 1 -218 18 3 9 24 100 46 201
22 101 43 188 46 193 3 4 -8 8 -25 8 -16 0 -233 11 -483 25 -630 34 -2713 143
-2825 147 -64 3 -90 1 -84 -6z"/>
<path d="M922 4817 c-15 -17 -10 -42 14 -68 10 -12 14 -19 7 -15 -12 6 43 -84
67 -111 6 -7 8 -13 4 -13 -4 0 1 -9 10 -19 10 -11 19 -25 20 -33 1 -7 18 -38
38 -68 19 -30 51 -83 70 -118 19 -35 41 -71 50 -82 9 -10 14 -20 12 -23 -2 -2
2 -10 11 -17 8 -7 15 -17 15 -23 0 -6 10 -21 22 -34 19 -20 20 -23 4 -17 -13
5 -11 0 8 -19 14 -14 26 -31 26 -38 0 -6 7 -9 15 -6 8 4 17 2 20 -4 4 -6 376
-9 1010 -9 1000 0 1005 0 1024 21 16 17 23 36 36 94 1 6 3 12 4 15 2 3 4 14 6
25 2 11 8 40 13 65 6 25 18 76 26 115 9 38 20 83 26 100 5 16 12 53 16 82 6
48 5 52 -20 69 -22 14 -51 17 -156 18 -70 1 -126 4 -124 7 2 3 -16 6 -39 6
-23 0 -177 7 -342 16 -165 9 -352 19 -415 22 -63 3 -149 8 -190 10 -41 3 -131
7 -200 10 -69 3 -152 7 -185 10 -93 8 -784 45 -841 45 -30 0 -56 -5 -62 -13z
m813 -57 c1367 -72 1740 -92 1742 -94 0 0 -25 -118 -58 -261 -32 -143 -59
-263 -59 -267 0 -5 -458 -8 -1017 -8 l-1018 0 -170 292 c-93 161 -182 313
-197 338 l-26 46 26 -3 c15 -2 365 -21 777 -43z"/>
<path d="M4303 4395 c0 -8 4 -12 9 -9 5 3 6 10 3 15 -9 13 -12 11 -12 -6z"/>
<path d="M1003 4005 c0 -8 4 -12 9 -9 5 3 6 10 3 15 -9 13 -12 11 -12 -6z"/>
<path d="M1296 3844 c-20 -20 -36 -42 -36 -50 0 -8 -4 -14 -10 -14 -5 0 -10
-5 -10 -12 0 -6 -10 -23 -22 -36 -13 -14 -16 -22 -8 -18 9 5 8 2 -2 -7 -10 -8
-18 -19 -18 -25 0 -6 -5 -14 -12 -18 -7 -5 -8 -3 -3 6 5 9 4 11 -4 6 -6 -4 -8
-12 -5 -18 4 -6 -2 -17 -12 -25 -10 -8 -17 -15 -15 -16 6 -3 -59 -116 -70
-123 -5 -3 -7 -10 -4 -15 4 -5 1 -9 -6 -9 -7 0 -9 -3 -6 -7 4 -3 -1 -11 -10
-18 -9 -7 -18 -20 -19 -30 -2 -10 -10 -22 -18 -27 -9 -5 -16 -13 -16 -18 0 -5
-13 -29 -30 -53 -16 -25 -30 -50 -30 -57 0 -6 -6 -8 -12 -4 -7 4 -10 4 -6 0 4
-5 -4 -26 -18 -47 -13 -21 -24 -41 -24 -44 0 -2 -16 -29 -35 -60 -20 -30 -32
-55 -28 -55 4 0 3 -4 -2 -8 -18 -12 -60 -76 -44 -67 10 6 10 3 -2 -11 -32 -37
-169 -305 -169 -329 0 -4 6 -13 14 -21 12 -12 266 -14 1753 -14 l1740 0 13 25
c12 23 12 30 -4 55 -9 17 -15 30 -11 30 3 0 -5 17 -18 38 -13 20 -38 66 -56
102 -18 36 -41 74 -50 84 -12 14 -12 17 -2 11 8 -5 4 6 -9 24 -13 19 -35 57
-49 85 -15 28 -41 72 -59 98 -18 26 -32 49 -32 53 0 3 -16 31 -35 61 -19 30
-34 55 -33 57 1 1 -19 32 -45 69 -26 37 -47 72 -47 77 0 6 -4 11 -9 11 -5 0
-14 14 -21 31 -7 17 -18 36 -24 42 -22 24 -48 70 -35 61 18 -10 -10 27 -28 39
-7 4 -13 13 -13 19 0 6 -11 26 -25 44 -14 18 -25 37 -25 42 0 6 -3 12 -7 14
-5 2 -16 19 -26 39 -38 74 42 69 -1095 69 l-1020 0 -36 -36z m2222 -199 c292
-468 595 -996 580 -1010 -3 -3 -788 -4 -1746 -3 l-1742 3 99 185 c116 218 189
343 433 737 l182 293 1034 -2 1035 -3 125 -200z"/>
<path d="M1105 3431 c-3 -5 -2 -12 3 -15 5 -3 9 1 9 9 0 17 -3 19 -12 6z"/>
<path d="M4135 3260 c10 -11 20 -20 23 -20 3 0 -3 9 -13 20 -10 11 -20 20 -23
20 -3 0 3 -9 13 -20z"/>
<path d="M4226 3187 c3 -10 9 -15 12 -12 3 3 0 11 -7 18 -10 9 -11 8 -5 -6z"/>
<path d="M4190 3001 c0 -6 4 -13 10 -16 6 -3 7 1 4 9 -7 18 -14 21 -14 7z"/>
<path d="M476 2357 c-18 -18 -81 -187 -101 -272 -3 -11 -14 -58 -25 -105 -12
-47 -22 -94 -24 -105 -2 -11 -10 -51 -17 -90 -10 -49 -14 -148 -13 -330 0
-227 3 -273 22 -365 12 -58 24 -116 27 -130 2 -14 18 -65 35 -115 17 -49 33
-97 34 -105 7 -35 78 -194 88 -198 5 -2 6 -8 2 -13 -3 -5 4 -22 15 -38 12 -16
21 -34 21 -41 0 -6 15 -34 33 -63 19 -29 34 -56 35 -62 0 -5 13 -25 27 -43 22
-27 29 -30 46 -22 11 6 23 8 28 6 5 -3 761 -6 1681 -6 1669 0 1672 0 1690 20
17 19 149 269 148 280 0 3 9 28 22 55 46 106 50 117 45 125 -3 4 -1 10 4 12 6
1 12 14 15 28 5 28 23 85 36 115 5 11 12 36 15 55 8 48 12 71 20 100 36 140
53 413 36 590 -18 179 -61 396 -106 525 -7 22 -19 61 -26 87 -7 26 -17 45 -21
42 -4 -3 -5 2 -2 10 3 8 -4 24 -15 35 -12 12 -18 21 -13 21 4 0 0 5 -8 10 -9
6 -707 10 -1873 10 l-1858 0 -23 -23z m3798 -155 c91 -285 121 -469 120 -747
0 -161 -5 -225 -23 -328 -43 -246 -111 -445 -236 -692 l-71 -140 -1706 -3
-1706 -2 -86 172 c-152 308 -223 561 -246 875 -20 286 31 622 141 928 l29 80
1870 -3 1869 -2 45 -138z"/>
<path d="M662 2068 c-116 -397 -108 -795 23 -1183 54 -160 93 -248 109 -242
14 6 240 110 244 113 2 1 -17 53 -42 116 -114 284 -151 571 -110 859 13 95 50
260 69 310 5 12 -20 23 -129 57 -73 23 -136 42 -139 42 -2 0 -14 -33 -25 -72z
m63 32 c-5 -8 31 -15 58 -11 4 0 7 -3 7 -8 0 -9 70 -31 107 -34 12 0 19 -5 17
-9 -3 -4 0 -8 5 -8 8 0 8 -6 1 -17 -9 -17 -33 -96 -35 -118 -1 -5 -7 -35 -13
-65 -6 -30 -15 -82 -19 -115 -12 -94 -8 -392 6 -475 17 -96 74 -294 106 -365
28 -65 37 -111 21 -112 -19 -1 -96 -39 -90 -45 3 -3 -1 -6 -8 -5 -20 1 -78
-24 -78 -34 0 -5 -5 -9 -11 -9 -5 0 -7 5 -4 10 3 6 3 10 -2 10 -7 0 -44 77
-49 105 -2 6 -16 48 -33 95 -17 46 -33 94 -34 105 -2 11 -6 27 -10 35 -3 8 -8
31 -12 50 -3 19 -11 60 -16 90 -17 91 -41 359 -33 371 2 3 6 39 8 80 14 196
34 314 70 417 8 23 13 42 9 42 -3 0 0 7 7 15 14 17 35 21 25 5z"/>
<path d="M1006 947 c3 -10 9 -15 12 -12 3 3 0 11 -7 18 -10 9 -11 8 -5 -6z"/>
<path d="M4376 178 c3 -5 10 -6 15 -3 13 9 11 12 -6 12 -8 0 -12 -4 -9 -9z"/>
</g>
</svg>
